<svg width="56" height="26" viewBox="0 0 56 26" fill="none" xmlns="http://www.w3.org/2000/svg">
<path d="M4.04476 14.9744V26H0.429994V7.43049H3.89969V10.4529H4.12939C4.55655 9.46959 5.2255 8.67974 6.13625 8.08333C7.05505 7.48691 8.21162 7.1887 9.60594 7.1887C10.8713 7.1887 11.9795 7.45467 12.9306 7.98661C13.8816 8.51049 14.6191 9.29228 15.1429 10.332C15.6668 11.3717 15.9288 12.6572 15.9288 14.1885V26H12.314V14.6238C12.314 13.2778 11.9634 12.226 11.2622 11.4684C10.561 10.7027 9.59788 10.3199 8.37281 10.3199C7.5346 10.3199 6.78908 10.5012 6.13625 10.8639C5.49147 11.2266 4.97968 11.7585 4.60088 12.4597C4.23013 13.1529 4.04476 13.9911 4.04476 14.9744ZM20.3898 26V23.5216L30.4483 10.743V10.5738H20.7162V7.43049H34.9577V10.066L25.2861 22.6875V22.8567H35.2962V26H20.3898ZM48.3982 7.43049V10.332H37.9045V7.43049H48.3982ZM40.7818 26V5.27856C40.7818 4.11796 41.0357 3.15483 41.5434 2.38916C42.0512 1.61543 42.7242 1.03917 43.5624 0.660362C44.4006 0.273496 45.3113 0.0800631 46.2946 0.0800631C47.02 0.0800631 47.6406 0.140511 48.1564 0.261407C48.6722 0.374242 49.0551 0.479018 49.3049 0.575734L48.4586 3.5014C48.2894 3.45304 48.0718 3.39662 47.8058 3.33215C47.5398 3.25961 47.2175 3.22334 46.8386 3.22334C45.9601 3.22334 45.3315 3.44095 44.9527 3.87617C44.5819 4.3114 44.3966 4.94005 44.3966 5.76214V26H40.7818ZM55.7426 1.24066V26H52.1278V1.24066H55.7426Z" fill="#36C7C9"/>
</svg>
